<svg xmlns="http://www.w3.org/2000/svg" width="1394" zoomAndPan="magnify" viewBox="0 0 1045.5 253.5" height="338" preserveAspectRatio="xMidYMid meet" version="1.0"><path fill="#ff1616" d="m116.816 16.082-.66.102.102 12.996c.05 7.156.176 16.652.254 21.144l.152 8.145 10.313.152c5.664.102 10.367.102 10.441.027.078-.078.332-3.882.535-8.476.203-4.594.457-8.43.559-8.504.254-.277 4.343.328 7.187 1.039 7.672 1.93 19.156 6.398 27.817 10.79 4.906 2.487 7.875 4.362 7.875 4.972.027 1.347-1.598 20.281-1.75 20.406-.078.078-3.532 1.676-7.649 3.531-13.996 6.293-28.832 12.992-31.297 14.137l-2.465 1.14-7.417 10.079c-4.114 5.531-8.942 12.054-10.747 14.492-5.105 6.93-6.07 8.172-6.832 8.73-.687.508-.687.508-1.043.024-.203-.278-6.07-8.043-13.054-17.23L86.434 97.05 66.289 88.09c-11.102-4.926-20.324-9.035-20.5-9.164-.258-.153-.535-2.79-1.07-10.48-.407-5.66-.633-10.333-.559-10.407 4.14-3.172 15.067-8.426 25.203-12.133 6.551-2.386 11.864-3.808 15.953-4.265l1.575-.176v.683c0 1.067.789 16.5.84 16.524.023 0 4.8-.05 10.59-.125l10.542-.129.078-21.14.051-21.118h-4.117c-7.238 0-17.375 1.88-30.813 5.711-14.304 4.086-21.695 7.055-42.804 17.309-3.153 1.523-6.887 3.273-8.309 3.883l-2.617 1.093v2.309c0 3.12 1.168 28.504 1.652 35.941 1.907 28.957 5.715 50.762 12.192 69.797 6.125 17.918 14.254 31.395 26.547 44.012 8.843 9.058 22.05 18.883 36.457 27.105 5.562 3.172 10.492 5.532 11.558 5.532.153 0 .254-4.516.254-12.434v-12.414l-1.726-1.219c-.97-.683-4.118-2.715-7.012-4.515-8.258-5.18-11.688-7.895-18.8-14.848-9.325-9.137-15.977-17.64-19.993-25.508-1.602-3.2-2.895-6.422-2.64-6.676.074-.078 4.546 1.828 9.956 4.215 5.438 2.383 10.618 4.645 11.535 5l1.649.684 7.621-5.43c4.168-2.996 7.773-5.508 7.977-5.637.558-.277-.356.532-8.204 7.438-3.863 3.426-7.039 6.394-7.039 6.597.028.508 2.973 13.985 3.075 14.086.05.051 2.746.332 5.945.637 3.227.305 6.148.582 6.555.61l.683.101 3.735-11.27c2.058-6.167 3.761-11.218 3.785-11.167.05.023-1.371 5.71-3.121 12.59l-3.203 12.511 6.402 6.395 6.375 6.37 6.402-6.394 6.403-6.398-.559-2.36c-.305-1.293-1.625-6.8-2.973-12.234-1.32-5.43-2.386-9.922-2.336-9.95.051-.05 1.547 4.544 3.329 10.255 1.777 5.687 3.351 10.636 3.503 11.015.204.559.434.711 1.067.711 1.066 0 13.137-1.472 13.289-1.597.101-.13.48-2.36 1.726-10.457.227-1.547.38-3.07.329-3.426-.051-.434-2.106-2.414-7.114-6.856-6.449-5.683-8.586-7.664-7.57-6.925.203.125 3.531 2.535 7.367 5.328s7.215 5.23 7.52 5.406c.457.277 1.78-.227 11.992-4.695 6.324-2.766 11.558-4.95 11.633-4.899.05.074-.227 1.04-.66 2.133-4.215 10.582-17.325 26.777-29.848 36.852-3.074 2.46-6.121 4.543-15.168 10.382-2.004 1.27-3.887 2.563-4.192 2.84-.558.508-.558.637-.582 8.2 0 4.214.075 9.773.153 12.335l.176 4.645.636-.152c1.907-.48 8.18-3.707 14.657-7.563 21.011-12.539 36.226-26.195 46.183-41.45 11.078-17.003 18.8-40.632 22.89-70.026 1.727-12.383 2.59-23.5 3.2-41.118.152-4.187.383-9.949.508-12.816.129-2.867.254-6.649.254-8.426v-3.2l-1.953-.812c-1.094-.457-6.606-3.12-12.27-5.937-5.719-2.844-12.476-5.992-15.219-7.106-18.593-7.464-37.925-12.87-50.425-14.09-2.668-.277-6.657-.304-8.079-.101zm0 0" fill-opacity="1" fill-rule="nonzero"/><path d="M284.266 62.98v14.64h18.266c12.613 0 19.426 4.786 19.426 15.223 0 7.246-6.524 13.047-17.832 13.047h-19.86v14.063h22.325c11.597 0 18.992 6.668 18.992 14.785 0 9.86-5.8 15.078-19.57 15.078h-21.747v14.64h22.618c19.132 0 36.242-7.25 36.242-28.124 0-14.641-11.453-21.309-17.977-24.063v-.144c6.23-3.192 14.352-9.426 14.352-21.024 0-21.308-19.719-28.121-36.242-28.121zm-20.148 98.434c0 2.464.867 3.043 3.188 3.043h14.351V62.98h-14.351c-2.465 0-3.188.723-3.188 3.043zM361.824 161.414c0 2.316.727 3.043 3.043 3.043h10.438c2.32 0 3.046-.727 3.046-3.043V60.515c0-2.32-.582-3.047-3.046-3.047h-10.438c-2.316 0-3.043.727-3.043 3.047zM437.06 103.859c11.598.726 20.731 10.875 20.731 23.777 0 12.903-9.133 23.047-20.73 23.918v14.496c21.023-.867 37.113-17.976 37.113-38.414 0-20.441-16.238-37.84-37.113-38.562zm-2.464 47.695c-11.45-.726-20.73-11.015-20.73-23.918 0-13.484 9.714-23.195 20.73-23.777V89.074c-20.582.722-37.11 17.832-37.11 38.562 0 20.582 16.528 37.692 37.11 38.414zM486.641 127.636c0 20.293 15.657 37.692 37.11 38.414v-14.785c-11.742-.582-20.73-10.726-20.73-23.629 0-12.758 8.988-23.05 20.73-23.777V89.074c-21.164.722-37.11 18.265-37.11 38.562zm59.293 17.973c-.87-1.012-1.597-1.594-2.464-1.594-.583 0-1.16.29-1.887 1.016-3.914 3.77-9.278 5.945-15.367 6.234v14.785c9.714-.289 18.703-4.203 25.515-10.87 1.305-1.305 1.016-2.032-.433-3.77zm5.797-45.664a38.2 38.2 0 0 0-25.515-10.871v14.785c4.93.144 11.02 2.031 15.367 6.234.726.727 1.304 1.016 1.887 1.016.867 0 1.593-.582 2.464-1.594l5.364-5.8c1.449-1.739 1.738-2.465.433-3.77zM583.19 164.457c2.465 0 3.043-.727 3.043-3.043V60.515c0-2.32-.578-3.047-3.043-3.047h-10.293c-2.465 0-3.191.727-3.191 3.047v100.899c0 2.316.726 3.043 3.191 3.043zm34.645-73.79c-2.028 0-2.754.727-4.637 3.043l-24.356 26.387v13.336l4.204 4.496 40.449-44.219c1.449-1.449.867-3.042-1.16-3.042zm16.238 73.79c1.883 0 3.48-.434 1.305-3.043l-29.72-33.344-10.726 11.742 20.149 21.602c1.742 2.316 2.61 3.043 4.64 3.043zM656.977 164.457c2.176 0 2.754-.727 4.059-3.043l32.183-70.891h.29l15.656 33.488h16.96l-30.007-60.308c-1.16-1.739-1.45-2.899-2.61-2.899h-.433c-1.016 0-1.45 1.16-2.465 2.899l-49 97.71c-.723 1.45.145 3.044 1.887 3.044zm86.11 0c1.886 0 2.757-1.594 2.03-3.043L727.43 126.62H679.74l-6.816 14.93h43.203l9.566 19.863c1.16 2.316 1.883 3.043 4.059 3.043zM783.968 166.05c6.813 0 12.903-2.465 17.832-7.683V142.71c-2.898 5.801-8.265 8.555-13.629 8.555-10.144 0-15.8-6.96-15.8-22.18V93.71c0-2.316-.723-3.042-3.043-3.042H758.89c-2.32 0-3.047.726-3.047 3.042v38.852c0 24.938 12.18 33.488 28.125 33.488zm36.969-72.34c0-2.316-.727-3.042-3.047-3.042h-10.437c-2.32 0-3.043.726-3.043 3.042v64.95l2.609 4.058c1.16 1.305 2.898 1.739 5.652 1.739h5.22c2.32 0 3.046-.727 3.046-3.043zM873.27 166.05c8.406 0 16.672-3.332 21.597-8.406v-18.121c-4.492 8.988-12.03 12.031-17.976 12.031-12.031 0-20.73-10.437-20.73-23.918 0-13.05 8.699-23.777 20.73-23.777 7.394 0 14.062 4.059 17.976 12.035v-17.11c-4.636-5.652-12.902-9.71-21.597-9.71-19.864 0-33.489 17.394-33.489 38.562 0 20.73 13.625 38.414 33.489 38.414zm40.734-105.535c0-2.32-.723-3.047-3.043-3.047h-10.437c-2.465 0-3.047.727-3.047 3.047v97.563l2.754 3.914c1.742 1.738 3.77 2.465 5.656 2.465h5.074c2.32 0 3.043-.727 3.043-3.043zM954.305 164.457c2.32 0 3.043-.727 3.043-3.043V93.71c0-2.316-.723-3.042-3.043-3.042h-10.437c-2.32 0-3.043.726-3.043 3.042v67.704c0 2.316.722 3.043 3.043 3.043zm-5.363-107.133c-5.656 0-10.149 4.64-10.149 10.293 0 5.656 4.493 10.004 10.149 10.004 5.508 0 10.148-4.348 10.148-10.004 0-5.653-4.64-10.293-10.148-10.293zM1028.674 162.425c1.883-1.011 2.028-1.738 1.594-3.914l-1.305-7.246c-.289-1.887-.726-2.61-1.593-2.61-.438 0-1.305.29-2.32.868-3.044 1.453-5.509 1.742-8.7 1.742-8.844 0-13.336-5.219-13.336-18.265v-26.676h-16.383v27.687c0 20.008 8.844 32.04 27.98 32.04 1.884 0 8.262 0 14.063-3.626zm-.289-68.57c0-2.46-.726-3.187-3.047-3.187h-22.324V76.46c0-2.32-.726-3.042-3.043-3.042h-10.293c-2.465 0-3.047.722-3.047 3.042v14.208h-5.363c-2.32 0-3.043.726-3.043 3.042v7.106c0 2.32.723 3.043 3.043 3.043h44.07c2.32 0 3.047-.723 3.047-3.043zm0 0" fill="#ff1616" fill-opacity="1"/></svg>