<svg width="1871" height="905" viewBox="0 0 1871 905" fill="none" xmlns="http://www.w3.org/2000/svg">
<path d="M533.82 604.33L20.4 904.76L6.18997 852.21C-6.31003 806.12 -2.04002 753.5 39.13 729.33C99.13 694.1 110.02 687.78 110.02 687.78C131.57 661.09 150.08 628.33 165.2 597.97C187.47 553.27 202.45 514.06 209.08 508.6L186.18 478.21L149.55 429.61L392.08 288.61L400.33 307L335.81 452.85C327.411 452.602 319.041 453.928 311.13 456.76C300.615 460.486 291.176 466.736 283.642 474.963C276.107 483.19 270.708 493.141 267.919 503.942C265.129 514.743 265.035 526.063 267.644 536.91C270.252 547.756 275.484 557.795 282.88 566.147C290.276 574.498 299.609 580.906 310.06 584.806C320.512 588.707 331.761 589.982 342.82 588.519C353.879 587.056 364.409 582.9 373.487 576.416C382.564 569.931 389.91 561.317 394.88 551.33L512.54 556.83L532.54 601.5L533.82 604.33Z" fill="url(#paint0_linear_1179_29)"/>
<path d="M596.47 114.95L552.77 261.43L610.67 166.58C616.84 189.04 623.16 211.99 629.33 234.29L573.5 386.59L652.16 316.33C664.16 358.98 672.86 389.12 674.16 391.33C678.87 399.33 592.24 509.21 592.24 509.21L515.08 530.41L500.41 529.72L402.07 525.12C402.916 511.362 399.562 497.671 392.45 485.863C385.339 474.055 374.807 464.686 362.25 459L415.02 339.62L565.08 0C565.08 0 578.79 50.33 596.47 114.95Z" fill="url(#paint1_linear_1179_29)"/>
<path d="M373.14 506.99C376.435 516.24 376.349 526.359 372.896 535.552C369.442 544.745 362.845 552.418 354.275 557.21C345.704 562.003 335.712 563.606 326.072 561.736C316.432 559.865 307.766 554.641 301.61 546.99C299.914 544.896 298.436 542.634 297.2 540.24C296.279 538.522 295.49 536.737 294.84 534.9C293.01 529.757 292.212 524.304 292.49 518.852C292.769 513.4 294.118 508.056 296.462 503.126C298.806 498.196 302.098 493.776 306.151 490.119C310.203 486.461 314.936 483.638 320.08 481.81V481.81C321.2 481.41 322.35 481.06 323.51 480.76C328.397 479.46 333.484 479.08 338.51 479.64C346.265 480.505 353.622 483.527 359.745 488.363C365.868 493.2 370.512 499.656 373.15 507L373.14 506.99Z" fill="url(#paint2_linear_1179_29)"/>
<path d="M746.82 580.48L788.9 313.79H860.31L842.27 425.33L943.74 313.79H1035.91L904.57 445.5L995.29 580.5H910.95L836.26 462.99L817.68 580.48H746.82Z" fill="url(#paint3_linear_1179_29)"/>
<path d="M1008.41 580.48L1037.41 396.48H1102.81L1073.66 580.48H1008.41ZM1042.29 341.66C1042.31 332.486 1045.96 323.692 1052.44 317.205C1058.93 310.717 1067.73 307.066 1076.9 307.05C1086.98 307.05 1095.36 310.33 1102.04 316.89C1108.72 323.45 1112.05 331.707 1112.04 341.66C1112.08 346.29 1111.2 350.881 1109.45 355.167C1107.7 359.453 1105.11 363.346 1101.84 366.62C1098.57 369.894 1094.67 372.482 1090.39 374.233C1086.1 375.985 1081.51 376.864 1076.88 376.82C1072.31 376.893 1067.77 376.016 1063.55 374.245C1059.33 372.474 1055.53 369.847 1052.38 366.53C1049.11 363.28 1046.53 359.401 1044.79 355.126C1043.06 350.852 1042.21 346.272 1042.29 341.66V341.66Z" fill="url(#paint4_linear_1179_29)"/>
<path d="M1281.83 463.71C1275.16 456.55 1268.39 451.217 1261.52 447.71C1254.85 444.238 1247.45 442.426 1239.93 442.43C1227.18 442.43 1216.5 447.38 1207.87 457.28C1199.24 467.18 1194.93 479.413 1194.94 493.98C1194.94 506.133 1198.27 515.76 1204.94 522.86C1211.61 529.96 1220.65 533.5 1232.08 533.48C1239.25 533.494 1246.37 532.2 1253.08 529.66C1260.31 526.831 1267.09 522.963 1273.21 518.18L1263.37 578.66C1255.23 581.565 1246.87 583.818 1238.37 585.4C1230.52 586.835 1222.57 587.565 1214.59 587.58C1188.59 587.58 1167.55 579.173 1151.47 562.36C1135.39 545.547 1127.35 523.593 1127.34 496.5C1127.34 464.813 1137.3 439.1 1157.21 419.36C1177.12 399.62 1203.23 389.753 1235.54 389.76C1245.55 389.709 1255.5 391.214 1265.05 394.22C1274.3 397.146 1282.98 401.612 1290.74 407.43L1281.83 463.71Z" fill="url(#paint5_linear_1179_29)"/>
<path d="M1392.22 474.46L1461.99 396.46H1543.78L1453.78 486.08L1513.9 580.44H1436.3L1389.66 493.55L1375.82 580.44H1311.33L1355.6 298.09H1420.6L1392.22 474.46Z" fill="url(#paint6_linear_1179_29)"/>
<path d="M1541.41 580.48L1563.09 443.48H1532.49L1539.96 396.48H1570.56L1578.76 343.1H1643.61L1635.08 396.5H1668.08L1660.61 443.5H1627.61L1606.11 580.5L1541.41 580.48Z" fill="url(#paint7_linear_1179_29)"/>
<path d="M1664.37 497.23C1664.37 466.023 1674.57 440.4 1694.98 420.36C1715.39 400.32 1741.5 390.31 1773.31 390.33C1802.7 390.33 1826.19 398.663 1843.8 415.33C1861.41 431.997 1870.21 454.22 1870.22 482C1870.22 512.847 1859.89 538.227 1839.22 558.14C1818.55 578.053 1791.96 588.013 1759.43 588.02C1730.65 588.02 1707.61 579.76 1690.3 563.24C1672.99 546.72 1664.35 524.717 1664.37 497.23ZM1772.08 443.13C1759.45 443.13 1748.73 448.443 1739.93 459.07C1731.13 469.697 1726.73 482.66 1726.72 497.96C1726.72 509.247 1729.94 518.247 1736.38 524.96C1742.82 531.673 1751.38 535.007 1762.06 534.96C1775.54 534.96 1786.62 529.83 1795.31 519.57C1804 509.31 1808.33 496.163 1808.31 480.13C1808.31 468.717 1805.06 459.717 1798.57 453.13C1792.08 446.543 1783.25 443.21 1772.08 443.13Z" fill="url(#paint8_linear_1179_29)"/>
<defs>
<linearGradient id="paint0_linear_1179_29" x1="130.61" y1="497.29" x2="342.86" y2="776.22" gradientUnits="userSpaceOnUse">
<stop stop-color="#AC7CFF"/>
<stop offset="1" stop-color="#7B3FE4"/>
</linearGradient>
<linearGradient id="paint1_linear_1179_29" x1="438.611" y1="179.641" x2="626.968" y2="347.751" gradientUnits="userSpaceOnUse">
<stop stop-color="#AC7CFF"/>
<stop offset="1" stop-color="#7B3FE4"/>
</linearGradient>
<linearGradient id="paint2_linear_1179_29" x1="312.772" y1="507.536" x2="340.071" y2="548.948" gradientUnits="userSpaceOnUse">
<stop stop-color="#AC7CFF"/>
<stop offset="1" stop-color="#7B3FE4"/>
</linearGradient>
<linearGradient id="paint3_linear_1179_29" x1="817.552" y1="404.12" x2="902.198" y2="543.288" gradientUnits="userSpaceOnUse">
<stop stop-color="#AC7CFF"/>
<stop offset="1" stop-color="#7B3FE4"/>
</linearGradient>
<linearGradient id="paint4_linear_1179_29" x1="1033.77" y1="399.656" x2="1118.22" y2="448.208" gradientUnits="userSpaceOnUse">
<stop stop-color="#AC7CFF"/>
<stop offset="1" stop-color="#7B3FE4"/>
</linearGradient>
<linearGradient id="paint5_linear_1179_29" x1="1167.32" y1="456.758" x2="1236.26" y2="543.138" gradientUnits="userSpaceOnUse">
<stop stop-color="#AC7CFF"/>
<stop offset="1" stop-color="#7B3FE4"/>
</linearGradient>
<linearGradient id="paint6_linear_1179_29" x1="1368.2" y1="393.717" x2="1466.68" y2="516.69" gradientUnits="userSpaceOnUse">
<stop stop-color="#AC7CFF"/>
<stop offset="1" stop-color="#7B3FE4"/>
</linearGradient>
<linearGradient id="paint7_linear_1179_29" x1="1565.67" y1="423.504" x2="1649.65" y2="496.262" gradientUnits="userSpaceOnUse">
<stop stop-color="#AC7CFF"/>
<stop offset="1" stop-color="#7B3FE4"/>
</linearGradient>
<linearGradient id="paint8_linear_1179_29" x1="1714.74" y1="457.284" x2="1778.6" y2="558.161" gradientUnits="userSpaceOnUse">
<stop stop-color="#AC7CFF"/>
<stop offset="1" stop-color="#7B3FE4"/>
</linearGradient>
</defs>
</svg>
