<svg id="Layer_1" data-name="Layer 1" xmlns="http://www.w3.org/2000/svg" xmlns:xlink="http://www.w3.org/1999/xlink" viewBox="0 0 1870.22 904.76"><defs><style>.cls-1{fill:url(#linear-gradient);}.cls-2{fill:url(#linear-gradient-2);}.cls-3{fill:url(#linear-gradient-3);}.cls-4{isolation:isolate;}.cls-5{fill:#fff;}</style><linearGradient id="linear-gradient" x1="162.53" y1="472.04" x2="374.78" y2="193.11" gradientTransform="matrix(1, 0, 0, -1, 0, 1080)" gradientUnits="userSpaceOnUse"><stop offset="0" stop-color="#f08844"/><stop offset="0.08" stop-color="#eb7c3f"/><stop offset="0.46" stop-color="#d5472a"/><stop offset="0.75" stop-color="#c8251d"/><stop offset="0.9" stop-color="#c31918"/></linearGradient><linearGradient id="linear-gradient-2" x1="485.65" y1="725.59" x2="702.83" y2="588.55" gradientTransform="matrix(1, 0, 0, -1, 0, 1080)" gradientUnits="userSpaceOnUse"><stop offset="0" stop-color="#f08844"/><stop offset="0.07" stop-color="#eb7c3f"/><stop offset="0.41" stop-color="#d5472a"/><stop offset="0.66" stop-color="#c8251d"/><stop offset="0.8" stop-color="#c31918"/></linearGradient><linearGradient id="linear-gradient-3" x1="336.18" y1="467.15" x2="406.45" y2="422.77" xlink:href="#linear-gradient"/></defs><path class="cls-1" d="M565.74,715,52.32,1015.43,38.11,962.88C25.61,916.79,29.88,864.17,71.05,840c60-35.23,70.89-41.55,70.89-41.55C163.49,771.76,182,739,197.12,708.64c22.27-44.7,37.25-83.91,43.88-89.37l-22.9-30.39-36.63-48.6L424,399.28l8.25,18.39L367.73,563.52a67.32,67.32,0,0,0-24.68,3.91A68.13,68.13,0,1,0,426.8,662l117.66,5.5,20,44.67Z" transform="translate(-31.92 -110.67)"/><path class="cls-2" d="M628.39,225.62,584.69,372.1l57.9-94.85c6.17,22.46,12.49,45.41,18.66,67.71l-55.83,152.3L684.08,427c12,42.65,20.7,72.79,22,75,4.71,8-81.92,117.88-81.92,117.88L547,641.08l-14.67-.69-98.34-4.6a68,68,0,0,0-39.82-66.12l52.77-119.38L597,110.67S610.71,161,628.39,225.62Z" transform="translate(-31.92 -110.67)"/><path class="cls-3" d="M405.06,617.66a41.56,41.56,0,0,1-71.53,40,39.56,39.56,0,0,1-4.41-6.75,38.51,38.51,0,0,1-2.36-5.34A41.56,41.56,0,0,1,352,592.48h0c1.12-.4,2.27-.75,3.43-1.05a40.78,40.78,0,0,1,15-1.12,41.72,41.72,0,0,1,34.64,27.36Z" transform="translate(-31.92 -110.67)"/><g class="cls-4"><path class="cls-5" d="M778.74,691.15l42.08-266.69h71.41L874.19,536,975.66,424.46h92.17L936.49,556.17l90.72,135H942.87L868.18,573.66,849.6,691.15Z" transform="translate(-31.92 -110.67)"/><path class="cls-5" d="M1040.33,691.15l29-184h65.4l-29.15,184Zm33.88-238.82a34.67,34.67,0,0,1,34.61-34.61q15.12,0,25.14,9.84t10,24.77a34.83,34.83,0,0,1-35.16,35.16,33.06,33.06,0,0,1-24.5-10.29A34.19,34.19,0,0,1,1074.21,452.33Z" transform="translate(-31.92 -110.67)"/><path class="cls-5" d="M1313.75,574.38q-10-10.74-20.31-16a46.69,46.69,0,0,0-21.59-5.28q-19.12,0-32.06,14.85t-12.93,36.7q0,18.23,10,28.88T1264,644.15a59,59,0,0,0,21-3.82,80,80,0,0,0,20.13-11.48l-9.84,60.48a163.38,163.38,0,0,1-25,6.74,133.57,133.57,0,0,1-23.78,2.18q-39,0-63.12-25.22t-24.13-65.86q0-47.53,29.87-77.14t78.33-29.6a96.61,96.61,0,0,1,29.51,4.46,86.13,86.13,0,0,1,25.69,13.21Z" transform="translate(-31.92 -110.67)"/><path class="cls-5" d="M1424.14,585.13l69.77-78h81.79l-90,89.62,60.12,94.36h-77.6l-46.64-86.89-13.84,86.89h-64.49l44.27-282.35h65Z" transform="translate(-31.92 -110.67)"/><path class="cls-5" d="M1573.33,691.15l21.68-137h-30.6l7.47-47h30.6l8.2-53.38h64.85L1667,507.17h33l-7.47,47h-33l-21.5,137Z" transform="translate(-31.92 -110.67)"/><path class="cls-5" d="M1696.29,607.9q0-46.81,30.61-76.87T1805.23,501q44.08,0,70.49,25t26.42,66.67q0,46.27-31,76.14t-79.79,29.88q-43.17,0-69.13-24.78T1696.29,607.9ZM1804,553.8q-18.95,0-32.15,15.94t-13.21,38.89q0,16.93,9.66,27t25.68,10q20.22,0,33.25-15.39t13-39.44q0-17.12-9.74-27T1804,553.8Z" transform="translate(-31.92 -110.67)"/></g></svg>