<svg width="679" height="914" viewBox="0 0 679 914" fill="none" xmlns="http://www.w3.org/2000/svg">
<path d="M22.1309 909.76L21.8964 909.897L22.4014 910.76L23.3668 910.499L23.2958 910.237L535.821 610.33L22.1309 909.76ZM22.1309 909.76L8.19144 858.21C-4.30856 812.12 -0.038559 759.5 41.1314 735.33C101.131 700.1 112.021 693.78 112.021 693.78L22.1309 909.76ZM536.326 611.193L537.104 610.738L536.733 609.918L535.454 607.091L535.453 607.088L515.454 562.421L515.203 561.86L514.588 561.831L396.928 556.331L396.277 556.301L395.986 556.884C391.089 566.725 383.851 575.213 374.907 581.602C365.963 587.991 355.587 592.086 344.69 593.528C333.793 594.969 322.709 593.713 312.412 589.87C302.114 586.026 292.917 579.712 285.63 571.484C278.343 563.255 273.188 553.363 270.617 542.676C268.047 531.989 268.14 520.834 270.889 510.192C273.637 499.549 278.957 489.744 286.381 481.638C293.804 473.532 303.105 467.374 313.465 463.702L313.468 463.701C321.262 460.911 329.508 459.605 337.782 459.849L338.454 459.869L338.726 459.254L403.246 313.404L403.426 312.997L403.244 312.591L394.994 294.201L394.539 293.187L393.579 293.745L151.049 434.745L150.075 435.312L150.753 436.212L187.383 484.812L209.744 514.486C208.993 515.271 208.2 516.341 207.366 517.631C206.255 519.35 205.022 521.535 203.673 524.119C200.975 529.287 197.775 536.118 194.097 544.154C192.724 547.154 191.282 550.324 189.775 553.641C183.2 568.105 175.356 585.359 166.306 603.524L167.201 603.97L166.306 603.524C151.226 633.805 132.793 666.427 111.359 693.008L110.933 693.256C110.518 693.498 109.858 693.883 108.878 694.454C106.919 695.597 103.683 697.489 98.5713 700.481C88.3482 706.465 70.6253 716.852 40.6252 734.467C-1.16075 758.999 -5.30458 812.268 7.2263 858.472L21.4361 911.021L21.7775 912.284L22.9065 911.623L536.326 611.193ZM396.881 557.33L514.541 562.83L313.131 462.76C302.617 466.486 293.177 472.736 285.643 480.963C278.109 489.19 272.71 499.141 269.92 509.942C267.131 520.743 267.036 532.063 269.645 542.91C272.254 553.756 277.486 563.795 284.881 572.147C292.277 580.498 301.611 586.906 312.062 590.806C322.513 594.707 333.762 595.982 344.821 594.519C355.88 593.056 366.411 588.9 375.488 582.416C384.565 575.931 391.912 567.317 396.881 557.33Z" fill="url(#paint0_linear_1411_13)" stroke="white" stroke-width="2"/>
<path d="M599.43 121.236L599.511 120.962L599.436 120.686C590.596 88.3764 582.749 59.6391 577.111 38.9793C574.292 28.6493 572.026 20.3388 570.465 14.6107C569.684 11.7467 569.079 9.5283 568.67 8.02591L568.205 6.31814L568.086 5.8835L568.056 5.77389L568.049 5.74637L568.047 5.73947L568.046 5.73775C568.046 5.73737 568.046 5.73717 567.081 6L568.046 5.73717L567.306 3.01826L566.167 5.59585L416.107 345.216L363.337 464.596L362.936 465.502L363.839 465.911C376.211 471.514 386.588 480.744 393.595 492.379C400.602 504.013 403.907 517.503 403.073 531.059L403.011 532.071L404.025 532.119L502.364 536.719L517.034 537.409L517.193 537.416L517.346 537.374L594.506 516.174L594.823 516.087L595.027 515.829L594.241 515.21C594.241 515.21 680.871 405.33 676.161 397.33L677.023 396.823C677.023 396.823 677.023 396.823 677.023 396.823C676.923 396.651 676.677 396.047 676.28 394.896C675.9 393.791 675.41 392.277 674.818 390.379C673.634 386.585 672.052 381.284 670.134 374.715C666.298 361.577 661.124 343.383 655.124 322.059L654.69 320.517L653.495 321.584L577.816 389.182L632.27 240.634L632.381 240.333L632.295 240.023C626.125 217.724 619.806 194.775 613.636 172.315L613.023 170.085L611.818 172.059L557.932 260.333L599.43 121.236Z" fill="url(#paint1_linear_1411_13)" stroke="white" stroke-width="2"/>
<path d="M325.258 485.793C324.072 486.099 322.895 486.458 321.746 486.868C316.479 488.74 311.632 491.631 307.482 495.376C303.332 499.122 299.961 503.648 297.561 508.697C295.16 513.746 293.778 519.218 293.493 524.801C293.208 530.384 294.026 535.968 295.899 541.234C296.565 543.117 297.374 544.946 298.316 546.706C299.583 549.158 301.097 551.474 302.834 553.619C309.138 561.453 318.012 566.802 327.883 568.717C337.755 570.633 347.987 568.991 356.764 564.083C365.541 559.175 372.297 551.317 375.833 541.903C379.368 532.493 379.458 522.135 376.087 512.665L376.093 512.662C373.392 505.142 368.636 498.531 362.366 493.579C356.096 488.626 348.563 485.532 340.622 484.646L340.622 484.646C335.474 484.072 330.264 484.461 325.258 485.793Z" fill="url(#paint2_linear_1411_13)" stroke="white" stroke-width="2"/>
<defs>
<linearGradient id="paint0_linear_1411_13" x1="132.611" y1="503.29" x2="344.861" y2="782.22" gradientUnits="userSpaceOnUse">
<stop stop-color="#AC7CFF"/>
<stop offset="1" stop-color="#7B3FE4"/>
</linearGradient>
<linearGradient id="paint1_linear_1411_13" x1="440.613" y1="185.641" x2="628.969" y2="353.751" gradientUnits="userSpaceOnUse">
<stop stop-color="#AC7CFF"/>
<stop offset="1" stop-color="#7B3FE4"/>
</linearGradient>
<linearGradient id="paint2_linear_1411_13" x1="314.773" y1="513.536" x2="342.073" y2="554.948" gradientUnits="userSpaceOnUse">
<stop stop-color="#AC7CFF"/>
<stop offset="1" stop-color="#7B3FE4"/>
</linearGradient>
</defs>
</svg>
