<svg width="1871" height="905" viewBox="0 0 1871 905" fill="none" xmlns="http://www.w3.org/2000/svg">
<path d="M530.616 603.309L21.9612 900.951L8.60476 851.557L8.60427 851.555C-3.81853 805.75 0.766915 754.752 40.3971 731.486L39.1314 729.33L40.3973 731.486C70.3967 713.871 88.1182 703.484 98.3394 697.501C103.45 694.51 106.685 692.619 108.643 691.477C109.621 690.906 110.28 690.522 110.694 690.281L111.141 690.021L111.244 689.961L111.269 689.947L111.275 689.943L111.276 689.942L111.276 689.942L111.676 689.71L111.967 689.35C133.684 662.453 152.288 629.507 167.439 599.085C176.52 580.859 184.394 563.535 190.97 549.071C192.475 545.76 193.912 542.598 195.28 539.61C198.96 531.572 202.125 524.816 204.776 519.738C206.102 517.199 207.277 515.121 208.305 513.532C209.365 511.893 210.153 510.956 210.671 510.53L212.519 509.008L211.078 507.095L188.178 476.705L188.178 476.705L153.244 430.355L390.937 292.167L397.595 307.007L334.196 450.322C326.055 450.278 317.964 451.659 310.29 454.406C299.392 458.268 289.609 464.748 281.799 473.274C273.989 481.803 268.392 492.119 265.5 503.316C262.608 514.514 262.51 526.25 265.214 537.494C267.919 548.738 273.343 559.146 281.01 567.804C288.677 576.462 298.353 583.105 309.188 587.149C320.022 591.193 331.684 592.514 343.149 590.998C354.614 589.481 365.531 585.172 374.941 578.45C383.907 572.045 391.243 563.637 396.372 553.902L510.888 559.255L530.26 602.521L530.264 602.53L530.616 603.309Z" fill="white" stroke="#7B3FE4" stroke-width="5"/>
<path d="M417.308 340.63L564.521 7.45322C564.698 8.10252 564.887 8.7956 565.088 9.53129C566.65 15.2596 568.916 23.5704 571.735 33.9006C577.332 54.4139 585.108 82.8903 593.871 114.92L550.376 260.715L554.905 262.733L609.793 172.818C615.403 193.23 621.115 213.968 626.708 234.183L571.154 385.73L575.167 388.455L650.84 320.862C656.38 340.529 661.167 357.341 664.774 369.696C666.694 376.271 668.284 381.596 669.476 385.421C670.072 387.331 670.574 388.884 670.972 390.037C671.268 390.897 671.566 391.72 671.841 392.284C671.823 392.469 671.766 392.782 671.624 393.249C671.312 394.285 670.699 395.724 669.766 397.558C667.909 401.207 664.97 406.066 661.255 411.757C653.837 423.12 643.485 437.558 632.958 451.783C622.437 465.999 611.767 479.97 603.725 490.389C599.704 495.597 596.342 499.917 593.985 502.934C592.806 504.442 591.879 505.625 591.247 506.43C591.07 506.656 590.916 506.852 590.786 507.017L514.802 527.894L500.529 527.223L404.677 522.739C405.018 509.334 401.529 496.09 394.593 484.573C387.647 473.039 377.553 463.751 365.522 457.785L417.308 340.631L417.308 340.63Z" fill="white" stroke="#7B3FE4" stroke-width="5"/>
<path d="M370.792 507.826C368.311 500.93 363.948 494.868 358.197 490.325C352.441 485.779 345.525 482.938 338.235 482.125L370.792 507.826ZM370.792 507.826L370.786 507.829C373.884 516.523 373.802 526.033 370.557 534.673C367.311 543.312 361.111 550.524 353.056 555.028C345 559.533 335.61 561.04 326.55 559.281C317.49 557.523 309.345 552.613 303.559 545.423L303.554 545.416C301.965 543.455 300.581 541.336 299.423 539.093L299.414 539.076L299.405 539.059C298.544 537.453 297.806 535.784 297.198 534.066L297.197 534.062C295.477 529.228 294.727 524.103 294.989 518.979C295.25 513.855 296.519 508.833 298.721 504.2C300.924 499.566 304.018 495.412 307.827 491.975C311.636 488.537 316.084 485.884 320.919 484.166L320.081 481.81M370.792 507.826L320.081 481.81M320.081 481.81L320.922 484.164C321.967 483.791 323.045 483.463 324.137 483.18L324.146 483.178L324.154 483.176C328.742 481.955 333.516 481.599 338.234 482.125L320.081 481.81Z" fill="white" stroke="#7B3FE4" stroke-width="5"/>
<path d="M791.038 316.29H857.375L839.804 424.931L838.461 433.234L844.121 427.012L944.847 316.29H1029.89L902.801 443.735L901.351 445.189L902.497 446.894L990.599 578H912.325L838.371 461.649L834.825 456.069L833.792 462.6L815.546 577.98H749.747L791.038 316.29Z" fill="white" stroke="#7B3FE4" stroke-width="5"/>
<path d="M1044.79 341.705L1042.29 341.66L1044.79 341.664C1044.81 333.151 1048.19 324.992 1054.21 318.972C1060.23 312.953 1068.39 309.565 1076.9 309.55C1086.38 309.55 1094.12 312.61 1100.29 318.674C1106.46 324.731 1109.55 332.328 1109.54 341.656L1109.54 341.67L1109.54 341.684C1109.58 345.981 1108.77 350.243 1107.14 354.221C1105.52 358.199 1103.11 361.813 1100.07 364.852C1097.04 367.891 1093.42 370.293 1089.44 371.919C1085.46 373.545 1081.2 374.361 1076.91 374.32L1076.87 374.32L1076.84 374.32C1072.61 374.388 1068.42 373.577 1064.52 371.94C1060.62 370.303 1057.11 367.874 1054.19 364.808L1054.17 364.782L1054.14 364.756C1051.11 361.743 1048.72 358.148 1047.11 354.186C1045.5 350.225 1044.71 345.979 1044.79 341.705ZM1071.53 577.98H1011.34L1039.55 398.98H1099.88L1071.53 577.98Z" fill="white" stroke="#7B3FE4" stroke-width="5"/>
<path d="M1253.98 531.993L1253.97 531.998C1246.97 534.645 1239.56 535.994 1232.08 535.98C1220.1 536 1210.34 532.263 1203.12 524.571C1195.92 516.9 1192.44 506.605 1192.44 493.981L1253.98 531.993ZM1253.98 531.993L1253.99 531.988M1253.98 531.993L1253.99 531.988M1253.99 531.988C1259.54 529.818 1264.83 527.055 1269.77 523.752M1253.99 531.988L1269.77 523.752M1235.55 392.26L1235.54 392.26C1203.79 392.253 1178.34 401.931 1158.97 421.136C1139.6 440.343 1129.84 465.385 1129.84 496.499L1235.55 392.26ZM1235.55 392.26C1245.3 392.21 1255 393.676 1264.3 396.604C1272.8 399.294 1280.81 403.325 1288.03 408.542L1280.14 458.401M1235.55 392.26L1280.14 458.401M1280.14 458.401C1274.45 452.848 1268.62 448.528 1262.67 445.488C1255.65 441.833 1247.85 439.926 1239.93 439.93L1280.14 458.401ZM1205.99 455.638C1215.07 445.212 1226.44 439.93 1239.93 439.93L1205.99 455.638ZM1205.99 455.638C1196.92 466.044 1192.43 478.881 1192.44 493.98L1205.99 455.638ZM1269.77 523.752L1261.14 576.794M1269.77 523.752L1261.14 576.794M1261.14 576.794C1253.57 579.419 1245.8 581.474 1237.92 582.941C1230.22 584.349 1222.41 585.065 1214.59 585.08C1189.18 585.079 1168.83 576.891 1153.28 560.632C1137.72 544.36 1129.85 523.063 1129.84 496.5L1261.14 576.794Z" fill="white" stroke="#7B3FE4" stroke-width="5"/>
<path d="M1389.75 474.063L1388.4 482.484L1394.08 476.127L1463.11 398.96H1537.73L1452.02 484.308L1450.59 485.727L1451.67 487.423L1509.34 577.94H1437.8L1391.86 492.367L1388.36 485.836L1387.19 493.157L1373.69 577.94H1314.25L1357.74 300.59H1417.67L1389.75 474.063Z" fill="white" stroke="#7B3FE4" stroke-width="5"/>
<path d="M1544.34 577.981L1565.56 443.87L1566.02 440.98H1563.09H1535.42L1542.1 398.98H1570.56H1572.71L1573.03 396.859L1580.91 345.6H1640.68L1632.61 396.105L1632.15 399H1635.08H1665.15L1658.48 441H1627.61H1625.47L1625.14 443.112L1603.97 577.999L1544.34 577.981Z" fill="white" stroke="#7B3FE4" stroke-width="5"/>
<path d="M1666.87 497.23V497.231C1666.85 524.146 1675.29 545.455 1692.03 561.431C1708.78 577.42 1731.16 585.52 1759.43 585.52L1666.87 497.23ZM1666.87 497.23C1666.87 466.626 1676.85 441.668 1696.73 422.143C1716.62 402.616 1742.07 392.81 1773.31 392.83H1773.31M1666.87 497.23L1773.31 392.83M1773.31 392.83C1802.2 392.83 1825.04 401.008 1842.08 417.145M1773.31 392.83L1842.08 417.145M1762.07 537.46C1776.28 537.459 1788.06 532.007 1797.22 521.185C1806.36 510.389 1810.83 496.633 1810.81 480.126C1810.81 468.22 1807.41 458.533 1800.35 451.375C1793.3 444.22 1783.78 440.713 1772.1 440.63L1772.09 440.63H1772.08C1758.63 440.63 1747.23 446.335 1738.01 457.475C1728.79 468.599 1724.23 482.144 1724.22 497.959V497.96C1724.22 509.746 1727.6 519.416 1734.58 526.69C1741.56 533.971 1750.81 537.507 1762.07 537.46ZM1762.07 537.46C1762.06 537.46 1762.06 537.46 1762.06 537.46V534.96M1762.07 537.46C1762.07 537.46 1762.07 537.46 1762.07 537.46L1762.06 534.96M1762.06 534.96C1775.54 534.96 1786.62 529.83 1795.31 519.57C1804 509.31 1808.33 496.163 1808.31 480.13M1762.06 534.96C1751.38 535.006 1742.82 531.673 1736.38 524.96L1808.31 480.13M1808.31 480.13C1808.31 468.716 1805.06 459.716 1798.57 453.13C1792.08 446.543 1783.25 443.21 1772.08 443.13L1808.31 480.13ZM1842.08 417.145C1859.12 433.269 1867.71 454.797 1867.72 482L1842.08 417.145ZM1867.72 482C1867.72 512.224 1857.63 536.935 1837.49 556.339C1817.35 575.743 1791.4 585.513 1759.43 585.52L1867.72 482Z" fill="white" stroke="#7B3FE4" stroke-width="5"/>
</svg>
