<svg width="1871" height="905" viewBox="0 0 1871 905" fill="none" xmlns="http://www.w3.org/2000/svg">
<path d="M533.821 604.33L20.4014 904.76L6.19144 852.21C-6.30856 806.12 -2.03856 753.5 39.1314 729.33C99.1314 694.1 110.021 687.78 110.021 687.78C131.571 661.09 150.081 628.33 165.201 597.97C187.471 553.27 202.451 514.06 209.081 508.6L186.181 478.21L149.551 429.61L392.081 288.61L400.331 307L335.811 452.85C327.413 452.602 319.042 453.928 311.131 456.76C300.617 460.486 291.177 466.736 283.643 474.963C276.109 483.19 270.71 493.141 267.92 503.942C265.131 514.743 265.036 526.063 267.645 536.91C270.254 547.756 275.486 557.795 282.881 566.147C290.277 574.498 299.611 580.906 310.062 584.806C320.513 588.707 331.762 589.982 342.821 588.519C353.88 587.056 364.411 582.9 373.488 576.416C382.565 569.931 389.912 561.317 394.881 551.33L512.541 556.83L532.541 601.5L533.821 604.33Z" fill="white"/>
<path d="M596.471 114.95L552.771 261.43L610.671 166.58C616.841 189.04 623.161 211.99 629.331 234.29L573.501 386.59L652.161 316.33C664.161 358.98 672.861 389.12 674.161 391.33C678.871 399.33 592.241 509.21 592.241 509.21L515.081 530.41L500.411 529.72L402.071 525.12C402.918 511.362 399.563 497.671 392.452 485.863C385.34 474.055 374.808 464.686 362.251 459L415.021 339.62L565.081 0C565.081 0 578.791 50.33 596.471 114.95Z" fill="white"/>
<path d="M373.141 506.99C376.437 516.24 376.35 526.359 372.897 535.552C369.444 544.745 362.847 552.418 354.276 557.21C345.705 562.003 335.714 563.606 326.074 561.736C316.434 559.865 307.767 554.641 301.611 546.99C299.915 544.896 298.438 542.634 297.201 540.24C296.281 538.522 295.492 536.737 294.842 534.9C293.012 529.757 292.213 524.304 292.492 518.852C292.77 513.4 294.12 508.056 296.464 503.126C298.807 498.196 302.1 493.776 306.152 490.119C310.204 486.461 314.938 483.638 320.081 481.81V481.81C321.201 481.41 322.351 481.06 323.511 480.76C328.399 479.46 333.485 479.08 338.511 479.64C346.266 480.505 353.623 483.527 359.746 488.363C365.87 493.2 370.514 499.656 373.151 507L373.141 506.99Z" fill="white"/>
<path d="M746.822 580.48L788.902 313.79H860.312L842.272 425.33L943.742 313.79H1035.91L904.572 445.5L995.292 580.5H910.952L836.262 462.99L817.682 580.48H746.822Z" fill="white"/>
<path d="M1008.41 580.48L1037.41 396.48H1102.81L1073.66 580.48H1008.41ZM1042.29 341.66C1042.31 332.486 1045.96 323.692 1052.45 317.204C1058.93 310.717 1067.73 307.066 1076.9 307.05C1086.98 307.05 1095.36 310.33 1102.04 316.89C1108.72 323.45 1112.05 331.706 1112.04 341.66C1112.09 346.289 1111.21 350.881 1109.46 355.167C1107.7 359.453 1105.12 363.346 1101.84 366.62C1098.57 369.894 1094.67 372.482 1090.39 374.233C1086.1 375.985 1081.51 376.864 1076.88 376.82C1072.31 376.893 1067.77 376.016 1063.55 374.245C1059.34 372.474 1055.53 369.847 1052.38 366.53C1049.11 363.279 1046.53 359.4 1044.79 355.126C1043.06 350.852 1042.21 346.271 1042.29 341.66V341.66Z" fill="white"/>
<path d="M1281.83 463.71C1275.16 456.55 1268.39 451.217 1261.52 447.71C1254.85 444.238 1247.45 442.426 1239.93 442.43C1227.18 442.43 1216.5 447.38 1207.87 457.28C1199.24 467.18 1194.93 479.413 1194.94 493.98C1194.94 506.133 1198.27 515.76 1204.94 522.86C1211.61 529.96 1220.65 533.5 1232.08 533.48C1239.26 533.494 1246.37 532.2 1253.08 529.66C1260.31 526.831 1267.09 522.963 1273.21 518.18L1263.37 578.66C1255.23 581.565 1246.87 583.818 1238.37 585.4C1230.53 586.835 1222.57 587.565 1214.59 587.58C1188.59 587.58 1167.55 579.173 1151.47 562.36C1135.39 545.547 1127.35 523.593 1127.34 496.5C1127.34 464.813 1137.3 439.1 1157.21 419.36C1177.12 399.62 1203.23 389.753 1235.54 389.76C1245.55 389.709 1255.51 391.214 1265.05 394.22C1274.3 397.146 1282.98 401.612 1290.74 407.43L1281.83 463.71Z" fill="white"/>
<path d="M1392.22 474.46L1461.99 396.46H1543.78L1453.78 486.08L1513.9 580.44H1436.3L1389.66 493.55L1375.82 580.44H1311.33L1355.6 298.09H1420.6L1392.22 474.46Z" fill="white"/>
<path d="M1541.41 580.48L1563.09 443.48H1532.49L1539.96 396.48H1570.56L1578.76 343.1H1643.61L1635.08 396.5H1668.08L1660.61 443.5H1627.61L1606.11 580.5L1541.41 580.48Z" fill="white"/>
<path d="M1664.37 497.23C1664.37 466.023 1674.57 440.4 1694.98 420.36C1715.39 400.32 1741.5 390.31 1773.31 390.33C1802.7 390.33 1826.19 398.663 1843.8 415.33C1861.41 431.996 1870.21 454.22 1870.22 482C1870.22 512.846 1859.89 538.226 1839.22 558.14C1818.55 578.053 1791.96 588.013 1759.43 588.02C1730.65 588.02 1707.61 579.76 1690.3 563.24C1672.99 546.72 1664.35 524.716 1664.37 497.23ZM1772.08 443.13C1759.45 443.13 1748.73 448.443 1739.93 459.07C1731.13 469.696 1726.73 482.66 1726.72 497.96C1726.72 509.246 1729.94 518.246 1736.38 524.96C1742.82 531.673 1751.38 535.006 1762.06 534.96C1775.54 534.96 1786.62 529.83 1795.31 519.57C1804 509.31 1808.33 496.163 1808.31 480.13C1808.31 468.716 1805.06 459.716 1798.57 453.13C1792.08 446.543 1783.25 443.21 1772.08 443.13Z" fill="white"/>
</svg>
