<svg id="Layer_1" data-name="Layer 1" xmlns="http://www.w3.org/2000/svg" xmlns:xlink="http://www.w3.org/1999/xlink" viewBox="0 0 1080 1080" style=""><defs><style>.cls-1{fill:url(#linear-gradient);}.cls-2{fill:url(#linear-gradient-2);}.cls-3{fill:url(#linear-gradient-3);}</style><linearGradient id="linear-gradient" x1="308.39" y1="602.8" x2="567" y2="813.55" gradientUnits="userSpaceOnUse"><stop offset="0" stop-color="#f08844"></stop><stop offset="0.09" stop-color="#eb7c3f"></stop><stop offset="0.51" stop-color="#d5472a"></stop><stop offset="0.83" stop-color="#c8251d"></stop><stop offset="1" stop-color="#c31918"></stop></linearGradient><linearGradient id="linear-gradient-2" x1="685.95" y1="252.83" x2="941.85" y2="505.77" gradientUnits="userSpaceOnUse"><stop offset="0" stop-color="#f08844"></stop><stop offset="0.08" stop-color="#eb7c3f"></stop><stop offset="0.46" stop-color="#d5472a"></stop><stop offset="0.75" stop-color="#c8251d"></stop><stop offset="0.9" stop-color="#c31918"></stop></linearGradient><linearGradient id="linear-gradient-3" x1="544.75" y1="596.71" x2="616.44" y2="638.89" gradientUnits="userSpaceOnUse"><stop offset="0" stop-color="#f08844"></stop><stop offset="0.08" stop-color="#eb7c3f"></stop><stop offset="0.44" stop-color="#d5472a"></stop><stop offset="0.71" stop-color="#c8251d"></stop><stop offset="0.86" stop-color="#c31918"></stop></linearGradient></defs><path class="cls-1 aEaiwYJb_0" d="M813.15,715.19,221.34,1061.53,205,1001c-14.42-53.12-9.49-113.78,38-141.69,69.15-40.62,81.72-47.9,81.72-47.9,24.83-30.71,46.15-68.53,63.59-103.46,25.68-51.54,42.95-96.72,50.59-103l-26.4-35-42.22-56L649.72,351.3l9.51,21.2L584.91,540.61a77.39,77.39,0,0,0-28.45,4.52,78.53,78.53,0,1,0,96.53,109l135.62,6.35L811.71,712Z"></path><path class="cls-2 aEaiwYJb_1" d="M885.37,151.12,835,320l66.74-109.33c7.12,25.89,14.4,52.34,21.51,78L858.88,464.24l90.68-81c13.82,49.17,23.86,83.91,25.33,86.4,5.42,9.2-94.42,135.89-94.42,135.89l-89,24.44-16.91-.81L661.2,623.89a78.38,78.38,0,0,0-45.9-76.22l60.83-137.61,173-391.43S865,76.68,885.37,151.12Z"></path><path class="cls-3 aEaiwYJb_2" d="M627.93,603a47.53,47.53,0,0,1,2.66,19.41,48.54,48.54,0,0,1-3.6,15.18,47.91,47.91,0,0,1-81.51,11.51,45.89,45.89,0,0,1-5.08-7.78,43.6,43.6,0,0,1-2.72-6.16A47.91,47.91,0,0,1,566.74,574c1.3-.47,2.62-.87,4-1.22a47.38,47.38,0,0,1,17.3-1.29A48.09,48.09,0,0,1,627.93,603Z"></path><style data-made-with="vivus-instant">.aEaiwYJb_0{stroke-dasharray:2414 2416;stroke-dashoffset:2415;animation:aEaiwYJb_draw_0 7200ms linear 0ms infinite,aEaiwYJb_fade 7200ms linear 0ms infinite;}.aEaiwYJb_1{stroke-dasharray:1984 1986;stroke-dashoffset:1985;animation:aEaiwYJb_draw_1 7200ms linear 0ms infinite,aEaiwYJb_fade 7200ms linear 0ms infinite;}.aEaiwYJb_2{stroke-dasharray:301 303;stroke-dashoffset:302;animation:aEaiwYJb_draw_2 7200ms linear 0ms infinite,aEaiwYJb_fade 7200ms linear 0ms infinite;}@keyframes aEaiwYJb_draw{100%{stroke-dashoffset:0;}}@keyframes aEaiwYJb_fade{0%{stroke-opacity:1;}94.44444444444444%{stroke-opacity:1;}100%{stroke-opacity:0;}}@keyframes aEaiwYJb_draw_0{11.11111111111111%{stroke-dashoffset: 2415}38.88888888888889%{ stroke-dashoffset: 0;}100%{ stroke-dashoffset: 0;}}@keyframes aEaiwYJb_draw_1{18.055555555555554%{stroke-dashoffset: 1985}45.83333333333333%{ stroke-dashoffset: 0;}100%{ stroke-dashoffset: 0;}}@keyframes aEaiwYJb_draw_2{25%{stroke-dashoffset: 302}52.77777777777778%{ stroke-dashoffset: 0;}100%{ stroke-dashoffset: 0;}}</style></svg>