<svg id="Layer_1" data-name="Layer 1" xmlns="http://www.w3.org/2000/svg" xmlns:xlink="http://www.w3.org/1999/xlink" viewBox="0 0 1080 1080"><defs><style>.cls-1,.cls-2{fill:none;stroke-linejoin:round;stroke-width:20px;}.cls-1{stroke:url(#linear-gradient);}.cls-2{stroke:url(#linear-gradient-2);}.cls-3{fill:url(#linear-gradient-3);}</style><linearGradient id="linear-gradient" x1="159.24" y1="703.58" x2="784.36" y2="703.58" gradientUnits="userSpaceOnUse"><stop offset="0" stop-color="#1d6cff"/><stop offset="1" stop-color="#c722ff"/></linearGradient><linearGradient id="linear-gradient-2" x1="569.8" y1="327.81" x2="943.64" y2="327.81" xlink:href="#linear-gradient"/><linearGradient id="linear-gradient-3" x1="500.73" y1="617.71" x2="594.95" y2="617.71" xlink:href="#linear-gradient"/></defs><path class="cls-1" d="M774.36,712.21l-582,340.59-16.11-59.57c-14.17-52.24-9.33-111.9,37.34-139.34,68-39.95,80.36-47.1,80.36-47.1,24.43-30.2,45.4-67.39,62.55-101.75,25.25-50.68,42.23-95.12,49.75-101.32l-26-34.44-41.52-55.09L613.65,354.35,623,375.2,549.91,540.53a76.33,76.33,0,0,0-28,4.43A77.23,77.23,0,1,0,616.87,652.2l133.37,6.23L773,709.06Z"/><path class="cls-2" d="M845.39,157.5,795.84,323.55,861.48,216c7,25.47,14.16,51.48,21.15,76.75L819.35,465.42l89.17-79.64c13.59,48.35,23.46,82.52,24.91,85,5.33,9-92.86,133.64-92.86,133.64l-87.53,24-16.63-.79-111.48-5.21a77,77,0,0,0-45.13-74.95l59.82-135.33L809.79,27.2S825.34,84.29,845.39,157.5Z"/><path class="cls-3" d="M592.22,601.9A46.83,46.83,0,0,1,594.84,621a47.12,47.12,0,0,1-83.7,26.25,45.48,45.48,0,0,1-5-7.66,43.71,43.71,0,0,1-2.67-6.05,47.11,47.11,0,0,1,28.58-60.18c1.28-.46,2.57-.86,3.89-1.2a47.18,47.18,0,0,1,56.28,29.75Z"/></svg>