<svg width="1871" height="905" viewBox="0 0 1871 905" fill="none" xmlns="http://www.w3.org/2000/svg">
<path d="M20.1295 903.76L19.8949 903.897L20.4 904.76L21.3653 904.499L21.2944 904.237L533.82 604.33L20.1295 903.76ZM20.1295 903.76L6.18997 852.21C-6.31003 806.12 -2.04002 753.5 39.13 729.33C99.13 694.1 110.02 687.78 110.02 687.78L20.1295 903.76ZM534.325 605.193L535.102 604.738L534.731 603.918L533.453 601.091L533.451 601.088L513.453 556.421L513.201 555.86L512.587 555.831L394.927 550.331L394.275 550.301L393.985 550.884C389.088 560.725 381.85 569.213 372.905 575.602C363.961 581.991 353.585 586.086 342.689 587.528C331.792 588.969 320.708 587.713 310.41 583.87C300.112 580.026 290.916 573.712 283.629 565.484C276.341 557.255 271.186 547.363 268.616 536.676C266.045 525.989 266.139 514.834 268.887 504.192C271.636 493.549 276.955 483.744 284.379 475.638C291.803 467.532 301.103 461.374 311.464 457.702L311.467 457.701C319.26 454.911 327.507 453.605 335.78 453.849L336.452 453.869L336.724 453.254L401.244 307.404L401.425 306.997L401.242 306.591L392.992 288.201L392.538 287.187L391.577 287.745L149.047 428.745L148.073 429.312L148.751 430.212L185.381 478.812L207.742 508.486C206.992 509.271 206.199 510.341 205.365 511.631C204.253 513.35 203.021 515.535 201.672 518.119C198.974 523.287 195.774 530.118 192.096 538.154C190.722 541.154 189.281 544.324 187.773 547.641C181.198 562.105 173.355 579.359 164.305 597.524L165.2 597.97L164.305 597.524C149.224 627.805 130.791 660.427 109.358 687.008L108.932 687.256C108.516 687.498 107.856 687.883 106.877 688.454C104.918 689.597 101.681 691.489 96.5698 694.481C86.3468 700.465 68.6239 710.852 38.6237 728.467C-3.16221 752.999 -7.30605 806.268 5.22484 852.472L19.4346 905.021L19.7761 906.284L20.905 905.623L534.325 605.193ZM394.88 551.33L512.54 556.83L311.13 456.76C300.615 460.486 291.176 466.736 283.642 474.963C276.107 483.19 270.708 493.141 267.919 503.942C265.129 514.743 265.035 526.063 267.644 536.91C270.252 547.756 275.484 557.795 282.88 566.147C290.276 574.498 299.609 580.906 310.06 584.806C320.512 588.707 331.761 589.982 342.82 588.519C353.879 587.056 364.409 582.9 373.487 576.416C382.564 569.931 389.91 561.317 394.88 551.33Z" fill="url(#paint0_linear_1179_29)" stroke="white" stroke-width="2"/>
<path d="M597.428 115.236L597.51 114.962L597.435 114.686C588.595 82.3764 580.747 53.6391 575.11 32.9793C572.291 22.6493 570.025 14.3388 568.463 8.61073C567.682 5.74671 567.078 3.5283 566.668 2.02591L566.203 0.318136L566.085 -0.116496L566.055 -0.226111L566.047 -0.253633L566.045 -0.260527L566.045 -0.262251C566.045 -0.262634 566.045 -0.262826 565.08 0L566.045 -0.262826L565.304 -2.98174L564.165 -0.404153L414.105 339.216L361.335 458.596L360.935 459.502L361.837 459.911C374.21 465.514 384.587 474.744 391.594 486.379C398.6 498.013 401.906 511.503 401.072 525.059L401.01 526.071L402.023 526.119L500.363 530.719L515.033 531.409L515.192 531.416L515.345 531.374L592.505 510.174L592.822 510.087L593.025 509.829L592.24 509.21C592.24 509.21 678.87 399.33 674.16 391.33L675.022 390.823C675.022 390.823 675.022 390.823 675.022 390.823C674.921 390.651 674.676 390.047 674.279 388.896C673.898 387.791 673.408 386.277 672.816 384.379C671.633 380.585 670.051 375.284 668.132 368.715C664.296 355.577 659.122 337.383 653.123 316.059L652.689 314.517L651.494 315.584L575.814 383.182L630.269 234.634L630.379 234.333L630.294 234.023C624.124 211.724 617.804 188.775 611.634 166.315L611.022 164.085L609.816 166.059L555.931 254.333L597.428 115.236Z" fill="url(#paint1_linear_1179_29)" stroke="white" stroke-width="2"/>
<path d="M323.256 479.793C322.07 480.099 320.893 480.458 319.744 480.868C314.477 482.74 309.63 485.631 305.481 489.376C301.331 493.122 297.959 497.648 295.559 502.697C293.159 507.746 291.777 513.218 291.492 518.801C291.207 524.384 292.024 529.968 293.898 535.234C294.564 537.117 295.372 538.946 296.315 540.706C297.582 543.158 299.096 545.474 300.833 547.619C307.137 555.453 316.011 560.802 325.882 562.717C335.754 564.633 345.985 562.991 354.763 558.083C363.54 553.175 370.295 545.317 373.832 535.903C377.367 526.493 377.457 516.135 374.086 506.665L374.091 506.662C371.39 499.142 366.635 492.531 360.365 487.579C354.095 482.626 346.562 479.532 338.621 478.646L338.621 478.646C333.472 478.072 328.262 478.461 323.256 479.793Z" fill="url(#paint2_linear_1179_29)" stroke="white" stroke-width="2"/>
<path d="M745.832 580.324L745.65 581.48H746.82H817.68H818.534L818.668 580.636L836.835 465.758L910.106 581.036L910.401 581.5H910.95H995.29H997.167L996.12 579.942L905.858 445.624L1036.62 314.496L1038.32 312.79H1035.91H943.74H943.298L943 313.117L843.794 422.168L861.297 313.95L861.485 312.79H860.31H788.9H788.046L787.912 313.634L745.832 580.324Z" fill="url(#paint3_linear_1179_29)" stroke="white" stroke-width="2"/>
<path d="M1007.42 580.324L1007.24 581.48H1008.41H1073.66H1074.51L1074.65 580.637L1103.8 396.637L1103.98 395.48H1102.81H1037.41H1036.56L1036.42 396.324L1007.42 580.324ZM1076.9 306.05L1076.9 306.05C1067.46 306.066 1058.41 309.823 1051.74 316.497C1045.07 323.17 1041.31 332.214 1041.29 341.65C1041.21 346.394 1042.08 351.106 1043.87 355.502C1045.65 359.897 1048.3 363.886 1051.67 367.229C1054.91 370.641 1058.82 373.344 1063.16 375.167C1067.5 376.99 1072.18 377.893 1076.88 377.82C1081.64 377.864 1086.36 376.959 1090.77 375.159C1095.17 373.357 1099.18 370.695 1102.55 367.327C1105.92 363.96 1108.58 359.954 1110.38 355.545C1112.18 351.138 1113.08 346.417 1113.04 341.656C1113.05 331.455 1109.62 322.937 1102.74 316.177C1095.86 309.418 1087.22 306.05 1076.9 306.05Z" fill="url(#paint4_linear_1179_29)" stroke="white" stroke-width="2"/>
<path d="M1281.1 464.391L1282.5 465.894L1282.82 463.866L1291.73 407.586L1291.82 406.991L1291.34 406.63C1283.49 400.744 1274.71 396.226 1265.35 393.267L1265.35 393.266C1255.71 390.229 1245.65 388.709 1235.54 388.76C1203.01 388.754 1176.63 398.696 1156.51 418.65C1136.38 438.603 1126.34 464.585 1126.34 496.5L1126.34 496.5C1126.35 523.806 1134.46 546.021 1150.75 563.051C1167.04 580.086 1188.35 588.58 1214.59 588.58H1214.59C1222.63 588.565 1230.65 587.83 1238.55 586.384L1238.55 586.383C1247.1 584.792 1255.51 582.524 1263.71 579.602L1264.26 579.404L1264.36 578.821L1274.2 518.341L1274.61 515.818L1272.59 517.392C1266.55 522.115 1259.86 525.933 1252.72 528.727C1246.13 531.222 1239.13 532.494 1232.08 532.48H1232.08C1220.88 532.5 1212.11 529.039 1205.67 522.176C1199.22 515.304 1195.94 505.945 1195.94 493.98V493.98C1195.93 479.626 1200.17 467.635 1208.62 457.937C1217.07 448.247 1227.48 443.43 1239.93 443.43H1239.93C1247.29 443.427 1254.53 445.199 1261.06 448.597L1261.07 448.601C1267.81 452.042 1274.49 457.295 1281.1 464.391Z" fill="url(#paint5_linear_1179_29)" stroke="white" stroke-width="2"/>
<path d="M1376.81 580.597L1390.18 496.635L1435.42 580.913L1435.7 581.44H1436.3H1513.9H1515.72L1514.74 579.903L1455.06 486.221L1544.49 397.169L1546.2 395.46H1543.78H1461.99H1461.54L1461.24 395.793L1393.75 471.25L1421.59 298.249L1421.77 297.09H1420.6H1355.6H1354.74L1354.61 297.935L1310.34 580.285L1310.16 581.44H1311.33H1375.82H1376.67L1376.81 580.597Z" fill="url(#paint6_linear_1179_29)" stroke="white" stroke-width="2"/>
<path d="M1540.42 580.324L1540.24 581.48L1541.41 581.48L1606.11 581.5L1606.97 581.5L1607.1 580.655L1628.47 444.5H1660.61H1661.46L1661.6 443.657L1669.07 396.657L1669.25 395.5H1668.08H1636.25L1644.6 343.258L1644.78 342.1H1643.61H1578.76H1577.9L1577.77 342.948L1569.7 395.48H1539.96H1539.11L1538.97 396.323L1531.5 443.323L1531.32 444.48H1532.49H1561.92L1540.42 580.324Z" fill="url(#paint7_linear_1179_29)" stroke="white" stroke-width="2"/>
<path d="M1762.06 533.96L1762.06 533.96C1775.25 533.96 1786.05 528.959 1794.55 518.924C1803.05 508.878 1807.33 495.975 1807.31 480.131V480.13C1807.31 468.914 1804.13 460.19 1797.86 453.832C1791.59 447.473 1783.04 444.209 1772.08 444.13C1759.77 444.131 1749.33 449.288 1740.7 459.708C1732.07 470.135 1727.73 482.866 1727.72 497.96L1762.06 533.96ZM1762.06 533.96C1751.61 534.006 1743.32 530.754 1737.1 524.268C1730.88 517.779 1727.72 509.047 1727.72 497.961L1762.06 533.96ZM1663.37 497.229C1663.37 465.782 1673.66 439.893 1694.28 419.647C1714.89 399.402 1741.27 389.31 1773.31 389.33C1773.31 389.33 1773.31 389.33 1773.31 389.33M1663.37 497.229L1690.3 563.24C1707.61 579.76 1730.65 588.02 1759.43 588.02C1791.96 588.013 1818.55 578.053 1839.22 558.14C1859.89 538.227 1870.22 512.847 1870.22 482C1870.21 454.22 1861.41 431.997 1843.8 415.33C1826.19 398.663 1802.7 390.33 1773.31 390.33L1773.31 389.33M1663.37 497.229C1663.35 524.945 1672.08 547.226 1689.61 563.963C1707.14 580.696 1730.45 589.02 1759.43 589.02C1792.18 589.013 1819.04 578.977 1839.91 558.86C1860.79 538.743 1871.22 513.096 1871.22 482C1871.21 453.989 1862.32 431.488 1844.49 414.604C1826.66 397.726 1802.9 389.33 1773.31 389.33M1663.37 497.229L1773.31 389.33" fill="url(#paint8_linear_1179_29)" stroke="white" stroke-width="2"/>
<defs>
<linearGradient id="paint0_linear_1179_29" x1="130.61" y1="497.29" x2="342.86" y2="776.22" gradientUnits="userSpaceOnUse">
<stop stop-color="#AC7CFF"/>
<stop offset="1" stop-color="#7B3FE4"/>
</linearGradient>
<linearGradient id="paint1_linear_1179_29" x1="438.611" y1="179.641" x2="626.968" y2="347.751" gradientUnits="userSpaceOnUse">
<stop stop-color="#AC7CFF"/>
<stop offset="1" stop-color="#7B3FE4"/>
</linearGradient>
<linearGradient id="paint2_linear_1179_29" x1="312.772" y1="507.536" x2="340.071" y2="548.948" gradientUnits="userSpaceOnUse">
<stop stop-color="#AC7CFF"/>
<stop offset="1" stop-color="#7B3FE4"/>
</linearGradient>
<linearGradient id="paint3_linear_1179_29" x1="817.552" y1="404.12" x2="902.198" y2="543.288" gradientUnits="userSpaceOnUse">
<stop stop-color="#AC7CFF"/>
<stop offset="1" stop-color="#7B3FE4"/>
</linearGradient>
<linearGradient id="paint4_linear_1179_29" x1="1033.77" y1="399.656" x2="1118.22" y2="448.208" gradientUnits="userSpaceOnUse">
<stop stop-color="#AC7CFF"/>
<stop offset="1" stop-color="#7B3FE4"/>
</linearGradient>
<linearGradient id="paint5_linear_1179_29" x1="1167.32" y1="456.758" x2="1236.26" y2="543.138" gradientUnits="userSpaceOnUse">
<stop stop-color="#AC7CFF"/>
<stop offset="1" stop-color="#7B3FE4"/>
</linearGradient>
<linearGradient id="paint6_linear_1179_29" x1="1368.2" y1="393.717" x2="1466.68" y2="516.69" gradientUnits="userSpaceOnUse">
<stop stop-color="#AC7CFF"/>
<stop offset="1" stop-color="#7B3FE4"/>
</linearGradient>
<linearGradient id="paint7_linear_1179_29" x1="1565.67" y1="423.504" x2="1649.65" y2="496.262" gradientUnits="userSpaceOnUse">
<stop stop-color="#AC7CFF"/>
<stop offset="1" stop-color="#7B3FE4"/>
</linearGradient>
<linearGradient id="paint8_linear_1179_29" x1="1714.74" y1="457.284" x2="1778.6" y2="558.161" gradientUnits="userSpaceOnUse">
<stop stop-color="#AC7CFF"/>
<stop offset="1" stop-color="#7B3FE4"/>
</linearGradient>
</defs>
</svg>
