<svg width="1078" height="530" viewBox="0 0 1078 530" fill="none" xmlns="http://www.w3.org/2000/svg">
<mask id="path-1-inside-1_788_290" fill="white">
<path d="M703.938 1.13505L533.165 143.234C532.584 143.716 531.9 144.058 531.166 144.233C514.931 148.03 324.625 193.401 189.797 264.562L189.264 264.795C182.224 267.459 40.0106 321.557 12.1054 363.765C11.8101 364.224 11.4339 364.627 10.995 364.952L1.98935 371.713C1.39341 372.156 0.907208 372.729 0.56833 373.389C0.229451 374.05 0.0469678 374.779 0.0349881 375.521C-0.120472 384.258 -0.0760535 414.376 7.31943 423.013C15.8809 433.004 88.5475 472.559 148.133 488.878C148.868 489.078 149.638 489.103 150.384 488.953C151.13 488.802 151.831 488.48 152.431 488.012L161.647 480.841C162.228 480.39 162.903 480.076 163.622 479.922C164.341 479.768 165.086 479.779 165.8 479.953L184.489 484.504C185.356 484.715 186.149 485.158 186.783 485.786C187.417 486.414 187.868 487.203 188.087 488.068L189.552 493.952C189.762 494.804 190.199 495.584 190.817 496.207C191.435 496.831 192.211 497.275 193.061 497.493C206.997 501.09 268.449 516.765 274.856 514.844C279.82 513.346 283.739 509.471 285.749 507.196C286.231 506.664 286.824 506.245 287.486 505.968C288.148 505.692 288.863 505.565 289.58 505.597L309.657 506.174C310.446 506.192 311.219 506.403 311.906 506.791C312.594 507.178 313.175 507.729 313.599 508.395C315.292 510.899 317.342 513.143 319.684 515.055C324.725 519.318 378.537 523.16 392.373 524.081C393.332 524.145 394.288 523.924 395.122 523.446C395.956 522.968 396.63 522.254 397.059 521.394L398.602 518.319C399.007 517.508 399.63 516.826 400.401 516.35C401.172 515.873 402.06 515.621 402.966 515.622H468.715C469.572 515.621 470.413 515.845 471.156 516.271C471.898 516.698 472.516 517.312 472.946 518.053L478.087 526.934C478.511 527.671 479.121 528.284 479.855 528.712C480.59 529.141 481.423 529.37 482.274 529.376C504.105 529.554 647.184 530.686 655.201 529.376C662.719 528.122 680.552 513.301 685.183 509.394C685.917 508.777 686.817 508.39 687.77 508.283C700.318 506.829 789.075 496.938 799.824 507.007C806.131 512.955 812.995 518.282 820.323 522.915C821.089 523.391 821.974 523.641 822.876 523.637H876.366C877.487 523.647 878.576 523.267 879.447 522.562C880.318 521.857 880.917 520.871 881.141 519.774C881.929 515.699 884.472 509.605 892.378 507.728C904.349 504.92 1015.09 454.097 1044.23 479.508C1044.92 480.134 1045.78 480.554 1046.7 480.718C1047.62 480.883 1048.57 480.787 1049.44 480.441L1069.78 471.96C1070.58 471.628 1071.28 471.089 1071.8 470.398C1072.33 469.708 1072.66 468.89 1072.76 468.03L1077.97 423.801C1078.04 423.137 1077.99 422.463 1077.8 421.821C1077.61 421.18 1077.28 420.584 1076.85 420.071C1069.35 411.257 1032.73 369.815 1008.82 371.103C982.057 372.557 990.019 372.557 990.019 372.557L986.898 360.168C986.733 359.507 986.707 358.819 986.824 358.148C986.941 357.476 987.197 356.837 987.576 356.271C993.128 348.056 1014.67 312.831 999.235 288.075C998.859 287.486 998.364 286.983 997.781 286.598L993.517 283.756C992.632 283.167 991.579 282.883 990.518 282.946L984.833 283.279C984.184 283.316 983.535 283.224 982.922 283.008C982.309 282.792 981.746 282.456 981.264 282.02C980.783 281.584 980.393 281.057 980.117 280.468C979.841 279.88 979.685 279.243 979.658 278.594L978.481 248.454C978.437 247.321 978.001 246.238 977.249 245.39L955.906 221.477C955.041 220.503 954.598 219.225 954.674 217.925L958.005 165.503C958.067 164.511 957.825 163.524 957.311 162.673C956.798 161.822 956.036 161.148 955.129 160.741L893.067 132.987C892.224 132.612 891.291 132.483 890.378 132.614C889.464 132.746 888.606 133.133 887.903 133.731L790.185 216.992C789.428 217.64 788.49 218.042 787.498 218.143C786.506 218.244 785.506 218.04 784.633 217.558L722.316 183.366C721.959 183.165 721.628 182.922 721.327 182.644L698.93 161.551C698.388 161.041 697.97 160.414 697.709 159.717C697.447 159.021 697.348 158.273 697.42 157.533L704.082 87.5933C704.184 86.649 704.007 85.6957 703.575 84.85C703.143 84.0043 702.473 83.303 701.648 82.8318C700.824 82.3606 699.879 82.14 698.931 82.197C697.983 82.254 697.072 82.5861 696.309 83.1527V83.1527C695.364 83.845 694.202 84.1747 693.034 84.0818C691.866 83.989 690.771 83.4797 689.947 82.6468C689.124 81.814 688.627 80.7129 688.547 79.5444C688.467 78.3759 688.81 77.2177 689.514 76.2809L703.649 57.4084C704.136 56.7559 704.452 55.993 704.571 55.1881L711.922 5.45352C712.036 4.48285 711.856 3.50034 711.405 2.63304C710.955 1.76574 710.254 1.05352 709.394 0.588462C708.535 0.123403 707.555 -0.0730979 706.582 0.0243429C705.61 0.121784 704.689 0.508685 703.938 1.13505V1.13505Z"/>
</mask>
<path d="M703.938 1.13505L533.165 143.234C532.584 143.716 531.9 144.058 531.166 144.233C514.931 148.03 324.625 193.401 189.797 264.562L189.264 264.795C182.224 267.459 40.0106 321.557 12.1054 363.765C11.8101 364.224 11.4339 364.627 10.995 364.952L1.98935 371.713C1.39341 372.156 0.907208 372.729 0.56833 373.389C0.229451 374.05 0.0469678 374.779 0.0349881 375.521C-0.120472 384.258 -0.0760535 414.376 7.31943 423.013C15.8809 433.004 88.5475 472.559 148.133 488.878C148.868 489.078 149.638 489.103 150.384 488.953C151.13 488.802 151.831 488.48 152.431 488.012L161.647 480.841C162.228 480.39 162.903 480.076 163.622 479.922C164.341 479.768 165.086 479.779 165.8 479.953L184.489 484.504C185.356 484.715 186.149 485.158 186.783 485.786C187.417 486.414 187.868 487.203 188.087 488.068L189.552 493.952C189.762 494.804 190.199 495.584 190.817 496.207C191.435 496.831 192.211 497.275 193.061 497.493C206.997 501.09 268.449 516.765 274.856 514.844C279.82 513.346 283.739 509.471 285.749 507.196C286.231 506.664 286.824 506.245 287.486 505.968C288.148 505.692 288.863 505.565 289.58 505.597L309.657 506.174C310.446 506.192 311.219 506.403 311.906 506.791C312.594 507.178 313.175 507.729 313.599 508.395C315.292 510.899 317.342 513.143 319.684 515.055C324.725 519.318 378.537 523.16 392.373 524.081C393.332 524.145 394.288 523.924 395.122 523.446C395.956 522.968 396.63 522.254 397.059 521.394L398.602 518.319C399.007 517.508 399.63 516.826 400.401 516.35C401.172 515.873 402.06 515.621 402.966 515.622H468.715C469.572 515.621 470.413 515.845 471.156 516.271C471.898 516.698 472.516 517.312 472.946 518.053L478.087 526.934C478.511 527.671 479.121 528.284 479.855 528.712C480.59 529.141 481.423 529.37 482.274 529.376C504.105 529.554 647.184 530.686 655.201 529.376C662.719 528.122 680.552 513.301 685.183 509.394C685.917 508.777 686.817 508.39 687.77 508.283C700.318 506.829 789.075 496.938 799.824 507.007C806.131 512.955 812.995 518.282 820.323 522.915C821.089 523.391 821.974 523.641 822.876 523.637H876.366C877.487 523.647 878.576 523.267 879.447 522.562C880.318 521.857 880.917 520.871 881.141 519.774C881.929 515.699 884.472 509.605 892.378 507.728C904.349 504.92 1015.09 454.097 1044.23 479.508C1044.92 480.134 1045.78 480.554 1046.7 480.718C1047.62 480.883 1048.57 480.787 1049.44 480.441L1069.78 471.96C1070.58 471.628 1071.28 471.089 1071.8 470.398C1072.33 469.708 1072.66 468.89 1072.76 468.03L1077.97 423.801C1078.04 423.137 1077.99 422.463 1077.8 421.821C1077.61 421.18 1077.28 420.584 1076.85 420.071C1069.35 411.257 1032.73 369.815 1008.82 371.103C982.057 372.557 990.019 372.557 990.019 372.557L986.898 360.168C986.733 359.507 986.707 358.819 986.824 358.148C986.941 357.476 987.197 356.837 987.576 356.271C993.128 348.056 1014.67 312.831 999.235 288.075C998.859 287.486 998.364 286.983 997.781 286.598L993.517 283.756C992.632 283.167 991.579 282.883 990.518 282.946L984.833 283.279C984.184 283.316 983.535 283.224 982.922 283.008C982.309 282.792 981.746 282.456 981.264 282.02C980.783 281.584 980.393 281.057 980.117 280.468C979.841 279.88 979.685 279.243 979.658 278.594L978.481 248.454C978.437 247.321 978.001 246.238 977.249 245.39L955.906 221.477C955.041 220.503 954.598 219.225 954.674 217.925L958.005 165.503C958.067 164.511 957.825 163.524 957.311 162.673C956.798 161.822 956.036 161.148 955.129 160.741L893.067 132.987C892.224 132.612 891.291 132.483 890.378 132.614C889.464 132.746 888.606 133.133 887.903 133.731L790.185 216.992C789.428 217.64 788.49 218.042 787.498 218.143C786.506 218.244 785.506 218.04 784.633 217.558L722.316 183.366C721.959 183.165 721.628 182.922 721.327 182.644L698.93 161.551C698.388 161.041 697.97 160.414 697.709 159.717C697.447 159.021 697.348 158.273 697.42 157.533L704.082 87.5933C704.184 86.649 704.007 85.6957 703.575 84.85C703.143 84.0043 702.473 83.303 701.648 82.8318C700.824 82.3606 699.879 82.14 698.931 82.197C697.983 82.254 697.072 82.5861 696.309 83.1527V83.1527C695.364 83.845 694.202 84.1747 693.034 84.0818C691.866 83.989 690.771 83.4797 689.947 82.6468C689.124 81.814 688.627 80.7129 688.547 79.5444C688.467 78.3759 688.81 77.2177 689.514 76.2809L703.649 57.4084C704.136 56.7559 704.452 55.993 704.571 55.1881L711.922 5.45352C712.036 4.48285 711.856 3.50034 711.405 2.63304C710.955 1.76574 710.254 1.05352 709.394 0.588462C708.535 0.123403 707.555 -0.0730979 706.582 0.0243429C705.61 0.121784 704.689 0.508685 703.938 1.13505V1.13505Z" fill="#242527" stroke="white" stroke-opacity="0.5" stroke-width="2" mask="url(#path-1-inside-1_788_290)"/>
</svg>
