<svg id="Layer_1" data-name="Layer 1" xmlns="http://www.w3.org/2000/svg" xmlns:xlink="http://www.w3.org/1999/xlink" viewBox="0 0 1080 1080"><defs><style>.cls-1{fill:url(#linear-gradient);}.cls-2{fill:#1d6cff;}</style><linearGradient id="linear-gradient" x1="542.18" y1="166.88" x2="537.12" y2="749.45" gradientUnits="userSpaceOnUse"><stop offset="0" stop-color="#1d6cff"/><stop offset="1" stop-color="#c722ff"/></linearGradient></defs><path class="cls-1" d="M574.88,757.91H111.78c-62.12,0-103.5-41.09-103.12-103.36.18-29.85-2.85-59.88,2.15-89.53,14.67-86.94,88-148.51,176.29-148.54,47.84,0,95.69.53,143.52-.13,96.51-1.32,172.65-41.78,228.24-120.71,22.58-32.08,44.44-64.68,67.54-96.39,31-42.5,82.19-60.25,133-48Q865.6,176.91,972,201.7c56,13.05,95.23,60.51,95.36,117.66q.48,209.11.32,418.24c0,16.45-3.9,20.28-20.75,20.28Q810.9,757.94,574.88,757.91ZM787.71,656.26q118.83,0,237.64,0c14.7,0,14.74-.07,14.76-15.11.06-29.89-.26-59.79.27-89.67.17-10.07-2.82-13.8-13.32-13.63-34,.55-68,.22-102,.17-62.59-.08-104.63-42.33-104.57-105,.08-75.1-.1-150.21.46-225.31.08-11.26-3.7-15.87-14.42-18-19-3.72-37.75-9.19-56.77-13-39.34-7.94-72.53,3.53-98.36,34.14-7.88,9.34-16.82,18.53-14.09,33.63,7.06,38.93,12.06,78.25,19.32,117.14,17.35,93-54.28,170.7-143.68,165-19.74-1.25-39.45-2.94-59.18-4.19-60-3.78-119.93-7.39-179.89-11.2C235.62,508.86,211,488.21,198.21,453c-2.52-6.94-5.58-9.45-12.66-9.26-38.9,1-72.81,14-101.82,40.31-12.87,11.67-15.68,26-13.07,41.73,6.28,37.88,34,61,72.85,61q130.59.16,261.18-.06c22.55-.06,42.54,6.54,60.86,19.3,20.54,14.31,41.37,28.2,61.76,42.71,7.68,5.47,15.58,7.71,25,7.68C630.78,656.16,709.25,656.27,787.71,656.26ZM850,200.8c-3.14,5.54-2.31,9.74-2.31,13.77q0,108.72.18,217.44c.09,48.38,30.06,78.44,78.31,78.58,33.25.1,66.51-.44,99.75.24,11.46.24,14.66-3.52,14.58-14.72-.43-58.28,0-116.57-.09-174.85,0-45.52-27.66-81.26-71.67-92.43-27.15-6.89-54.42-13.28-81.67-19.76C874.77,206.16,862.43,203.57,850,200.8ZM36.29,655.86c1.1,26.8,9.38,46.26,28.46,60.25,15.07,11,32.39,14.3,50.84,14.29q447.82-.18,895.66-.08c28.88,0,28.88,0,28.87-29,0-17.34,0-17.36-17-17.36q-454.56,0-909.11,0c-8.57,0-17.11.08-25.68-1.44C69.52,679.12,53.3,670.53,36.29,655.86Zm189.83-210.4c4.73,20.51,24,36.45,46.52,38.09,27.16,2,54.38,3.16,81.56,4.9,41.33,2.65,82.61,6.1,124,8,21.5,1,42.94,4.85,64.72.77,51.92-9.7,94-58.82,87.67-116.4-3.24-29.72-8.36-59.13-13.09-88.6-1.24-7.75-.52-16.09-5.81-24.22-14.51,20.37-27.55,40.37-42.28,59-59.59,75.61-137.7,114.83-234.12,116.64-31.37.6-62.76.06-94.13.16C236.35,443.84,231.41,442.86,226.12,445.46Zm258.35,210.8c.24-.8.48-1.61.71-2.41-9.77-6.8-19.83-13.22-29.25-20.48C437.31,619,416.45,614,393.1,614.14c-82.89.56-165.8,0-248.69.31-44.79.18-76.07-20-95-60.21-1.13-2.41-1-6.09-4.92-6.56C39,559.47,35,585,37,595.75c7,37.62,34.29,60.4,73.47,60.46q159.63.24,319.27,0Z"/><path class="cls-2" d="M789.46,348.28c0,22,.08,44.07,0,66.11-.06,11.86-4.89,18.06-13.59,18.08s-13.58-6.12-13.59-18.06q-.07-65.55.09-131.09c0-1.12,0-2.25.08-3.36.6-8.22,3.51-15.13,12.84-15.44,10-.33,13.78,6.68,13.9,15.42.3,22.78.1,45.56.1,68.34Z"/><path class="cls-2" d="M762.4,224.62c-.32-9.3,2.94-16.29,13-17.33,8.45-.88,13.84,6.44,13.84,17.63,0,11.6-4.7,18.3-13,18.61C767.48,243.85,762.3,236.76,762.4,224.62Z"/></svg>