<svg width="516" height="492" viewBox="0 0 516 492" fill="none" xmlns="http://www.w3.org/2000/svg">
<path d="M238.979 14.541C244.966 -3.8852 271.034 -3.88521 277.021 14.541L324.007 159.149C326.685 167.389 334.364 172.969 343.028 172.969H495.078C514.453 172.969 522.508 197.761 506.834 209.149L383.823 298.522C376.813 303.615 373.88 312.642 376.557 320.882L423.543 465.49C429.53 483.917 408.441 499.239 392.767 487.851L269.756 398.478C262.746 393.385 253.254 393.385 246.244 398.478L123.233 487.851C107.559 499.239 86.4695 483.917 92.4566 465.49L139.443 320.882C142.12 312.642 139.187 303.615 132.177 298.522L9.16623 209.149C-6.50804 197.761 1.54745 172.969 20.9219 172.969H172.972C181.636 172.969 189.315 167.389 191.993 159.149L238.979 14.541Z" fill="#D9D9D9"/>
</svg>
