<svg id="Layer_1" data-name="Layer 1" xmlns="http://www.w3.org/2000/svg" xmlns:xlink="http://www.w3.org/1999/xlink" viewBox="0 0 981.4 876.99"><defs><style>.cls-1{fill:url(#linear-gradient);}.cls-2{fill:url(#linear-gradient-2);}.cls-3{fill:url(#linear-gradient-3);}</style><linearGradient id="linear-gradient" x1="206.72" y1="643.74" x2="1043.12" y2="643.74" gradientUnits="userSpaceOnUse"><stop offset="0" stop-color="#ac7cff"/><stop offset="0.19" stop-color="#9f6cf8"/><stop offset="0.65" stop-color="#854bea"/><stop offset="0.9" stop-color="#7b3fe4"/></linearGradient><linearGradient id="linear-gradient-2" x1="781.55" y1="863.17" x2="1011.76" y2="863.17" xlink:href="#linear-gradient"/><linearGradient id="linear-gradient-3" x1="61.72" y1="319.5" x2="316.34" y2="319.5" xlink:href="#linear-gradient"/></defs><path class="cls-1" d="M1043.07,571.76c-.08-31-22.39-53.49-53.49-53.72-21.13-.15-42.25,0-63.38,0h-8.26c-.59-36.54-3.37-72.68,15.44-106,9-16,6.85-32.07-4.76-46.24-18.06-22-52.88-19.72-67.26,4.92-18.11,31-26.86,64.9-27.34,100.83-.19,15.2,0,30.4,0,46.17-2.8.14-5.1.36-7.41.36-41.6,0-83.19-.09-124.8.13-5.21,0-7.43-1.62-9.36-6.47-19.51-49.27-39.32-98.42-59.07-147.6-14.26-35.51-43.11-55-81.46-55.05q-66.63,0-133.28,0c-49.91,0-86.2,35.86-86.46,85.86q-.09,16.38-.11,32.77-.09,40.69,0,81.38,0,21.3,0,42.59v7.14c-6.67,0-13.05-.43-19.36.1-9.45.8-17.4,5.17-24.09,11.85q-14.1,14.09-28.18,28.17c-17.86,17.93-18,43.09-.51,61.25,2.32,2.41,6.26,5.65,5.85,7.82-1.06,5.62-4,10.93-6.55,16.19-.41.84-2.75,1.1-4.17,1-25.28-1.15-41.28,10.53-48.35,34.68V776c3.91,13.47,10.69,25.1,24.29,30.27,7.09,2.7,15.13,3.15,22.8,3.94,3.63.38,6,.83,7.18,4.8,1.42,4.73,3.67,9.21,6,14.93-2.32,1.93-5,3.83-7.3,6.13-16.51,16.65-17.22,41.65-1.25,58.73q15.36,16.44,31.8,31.85c16.68,15.61,41.67,14.39,58.82-2.25,2.27-2.22,5.35-6.11,7.3-5.69a45.34,45.34,0,0,1,16.66,7c1.87,1.34.86,6.88.92,10.52a42,42,0,0,0,31.79,40.45l7.44,1.83h47c8.21-3.6,17.28-6,24.44-11.08,10.71-7.62,14.88-19.42,14.77-32.57,0-3,0-6.08,0-9.07.8-.45,1.35-.74,1.88-1.06,10.12-6,18-6.48,27.92,3.19,15.21,14.86,39.72,12.68,55-2.22,9.82-9.57,19.45-19.35,29.12-29.07,17.49-17.6,17.51-42.8.2-60.79-2.33-2.41-6.33-5.62-5.93-7.79a46.3,46.3,0,0,1,6.64-16.1c1-1.6,5.6-1.25,8.56-1.24,17.16,0,30.48-7,38.7-22,3.14-5.74,4.33-12.56,6.71-19.82H675c30.06,0,60.11-.09,90.17.09,4.35,0,7-1.36,9.82-4.75,42.31-51.79,110.64-71.14,173.71-49,6.28,2.21,10.76,1.67,16.15-1.86,15.83-10.34,32.08-20.07,48-30.26,19.84-12.69,30-30.89,30.16-54.52C1043.15,609.64,1043.12,590.7,1043.07,571.76Zm-606,280.66c-56.95.48-104.37-46.07-104.9-103a104.46,104.46,0,0,1,104.5-106c57.07-.21,104.15,46.3,104.59,103.32A104.46,104.46,0,0,1,437.08,852.42Zm-20.89-334.8V393.15c1.87-.18,3.72-.5,5.57-.5q63.66,0,127.32-.07c3.49,0,6,.4,7.51,4.33C572,435.82,587.54,474.66,603,513.53a32.92,32.92,0,0,1,1,4.09Z" transform="translate(-61.72 -101.51)"/><path class="cls-2" d="M892.8,978.49c-10.8-2.18-21.93-3.35-32.35-6.71C810.18,955.6,777.23,905.42,782,853.36c5-54.45,46.45-97.76,100.07-104.58,61.17-7.8,118,34.29,128.09,94.87a115.17,115.17,0,0,1-89.68,131.74c-6.55,1.38-13.23,2.09-19.85,3.1Zm35.28-115.6A31.36,31.36,0,1,0,896.4,894.2,31.21,31.21,0,0,0,928.08,862.89Z" transform="translate(-61.72 -101.51)"/><path class="cls-3" d="M316.34,508.28l-74.93,24.8-12.21,4.06-70.15.35s-99-72.28-97-80.12c.57-2.13.8-29.61.84-68.43l83,40.7L62.83,314.33c-.06-20.26-.15-41.12-.24-61.52l71.24,66.35L62.37,205.9c-.33-58.67-.65-104.39-.65-104.39l206.84,251,47.77,58Q316.23,459.4,316.34,508.28Z" transform="translate(-61.72 -101.51)"/></svg>